<?xml version="1.0" encoding="utf-8"?>
<!-- Generator: Adobe Illustrator 23.0.1, SVG Export Plug-In . SVG Version: 6.00 Build 0)  -->
<svg version="1.1" id="Layer_1" xmlns="http://www.w3.org/2000/svg" xmlns:xlink="http://www.w3.org/1999/xlink" x="0px" y="0px"
	 viewBox="0 0 1000 400" style="enable-background:new 0 0 1000 400;" xml:space="preserve">
<style type="text/css">
	.st0{fill-rule:evenodd;clip-rule:evenodd;fill:#31D8B5;}
	.st1{fill:#007BC6;}
	.st2{fill:#FF8340;}
	.st3{fill-rule:evenodd;clip-rule:evenodd;fill:#007BC6;}
	.st4{fill-rule:evenodd;clip-rule:evenodd;fill:#7CB846;}
	.st5{fill-rule:evenodd;clip-rule:evenodd;fill:#36A2ED;}
	.st6{fill:#36A2ED;}
	.st7{fill:#3D939F;}
	.st8{fill:#C2F3E9;}
	.st9{fill:#C5DFE2;}
	.st10{fill:#00E577;}
</style>
<path class="st0" d="M282.01,193.22c0,19.74-16.01,35.75-35.75,35.75c-19.74,0-35.53-16.01-35.74-35.75
	c-0.21-19.51,15.81-35.53,35.74-35.74C266,157.28,282.01,173.48,282.01,193.22"/>
<path class="st1" d="M283.09,130.66v0.01l-14.66,23.53c-1.48-0.84-3.01-1.61-4.6-2.28l15-24.08l0.01-0.01
	c0.94,0.88,1.98,1.64,3.1,2.26C282.31,130.29,282.7,130.48,283.09,130.66z"/>
<path class="st1" d="M286.74,101.28v0.02c-1.08,0.19-2.15,0.49-3.15,0.9c-0.2,0.07-0.4,0.16-0.59,0.26c-0.2,0.07-0.4,0.17-0.58,0.28
	c-0.19,0.09-0.38,0.2-0.56,0.3v-0.01l-6.65-41.41V61.6c0.11,0.01,0.23,0.02,0.35,0.02l0.09,0.01h0.01h0.02h0.06l0.18,0.01h0.17
	l0.12-0.01c0.13,0,0.24,0,0.35-0.01h0.01h0.05l0.09-0.01l0.25-0.02h0.07l0.04-0.01c0.15-0.01,0.29-0.03,0.44-0.05h0.01l0.11-0.02
	c0.1-0.01,0.2-0.02,0.29-0.04c0.12-0.02,0.25-0.04,0.38-0.07l0.04-0.01l0.1-0.02c0.1-0.02,0.21-0.05,0.31-0.08l0.04-0.01l0.04-0.01
	l0.19-0.05l0.25-0.07l0.02-0.01h0.02l0.04-0.01l0.1-0.04h0.01l0.02-0.01h0.01l0.19-0.07c0.18-0.05,0.34-0.11,0.52-0.19v0.01
	L286.74,101.28z"/>
<path class="st1" d="M337.92,92.87l-33.88,18.57v0.01h-0.01c-0.57-1.64-1.41-3.15-2.46-4.48l0.01-0.01l33.88-18.56
	C335.94,90.07,336.79,91.58,337.92,92.87z"/>
<path class="st2" d="M403.42,183.5c0,6.06-4.92,10.98-10.98,10.98c-6.05,0-10.98-4.92-10.98-10.98c0-6.05,4.93-10.98,10.98-10.98
	C398.5,172.52,403.42,177.46,403.42,183.5z"/>
<path class="st3" d="M370.38,133.3c-1.57-0.74-2.95-1.8-4.04-3.12l-22.96,29.61c1.62,0.64,3.17,1.45,4.6,2.4L370.38,133.3z"/>
<path class="st3" d="M378.55,185.9l0.03,0.16h-19.41c0.1-0.93,0.16-1.88,0.16-2.83c0-0.77-0.04-1.53-0.1-2.28h19.36
	c-0.05,0.3-0.1,0.6-0.15,0.92l-0.02,0.21l-0.02,0.14c-0.04,0.43-0.06,0.85-0.06,1.29v0.1c0,0.33,0.02,0.67,0.05,0.99l0.01,0.2
	C378.42,185.17,378.47,185.54,378.55,185.9z"/>
<path class="st4" d="M394.17,243.14c0,5.31-4.32,9.63-9.63,9.63c-5.31,0-9.63-4.32-9.63-9.63c0-5.31,4.32-9.63,9.63-9.63
	C389.85,233.51,394.17,237.83,394.17,243.14z"/>
<path class="st3" d="M309.45,188.44l-18.48,2.33c-0.08-1.72-0.27-3.41-0.56-5.08l18.5-2.33C308.91,185.1,309.1,186.8,309.45,188.44z
	"/>
<path class="st3" d="M377.86,232.29c-0.92,0.56-1.75,1.24-2.5,2.01c-0.16,0.16-0.3,0.31-0.43,0.47c-0.16,0.17-0.29,0.33-0.42,0.5
	c-0.14,0.17-0.27,0.34-0.39,0.51l-28.38-30.19c1.53-0.8,2.99-1.76,4.33-2.86l27.77,29.55L377.86,232.29z"/>
<path class="st5" d="M394.17,243.14c0,5.31-4.32,9.63-9.63,9.63c-5.31,0-9.63-4.32-9.63-9.63c0-5.31,4.32-9.63,9.63-9.63
	C389.85,233.51,394.17,237.83,394.17,243.14z"/>
<path class="st5" d="M346.66,95.26c5.57,0,10.1-4.53,10.1-10.1c0-5.57-4.53-10.1-10.1-10.1c-5.57,0-10.1,4.53-10.1,10.1
	C336.55,90.73,341.09,95.26,346.66,95.26z"/>
<path class="st5" d="M284.45,49.97c0,4.7-3.83,8.54-8.53,8.54c-4.71,0-8.54-3.84-8.54-8.54c0-4.7,3.83-8.54,8.54-8.54
	C280.62,41.43,284.45,45.27,284.45,49.97z"/>
<path class="st5" d="M301.77,116.54c0,6.82-5.54,12.36-12.36,12.36c-6.81,0-12.36-5.54-12.36-12.36c0-6.81,5.55-12.36,12.36-12.36
	C296.23,104.18,301.77,109.73,301.77,116.54z"/>
<path class="st5" d="M403.42,183.5c0,6.06-4.92,10.98-10.98,10.98c-6.05,0-10.98-4.92-10.98-10.98c0-6.05,4.93-10.98,10.98-10.98
	C398.5,172.52,403.42,177.46,403.42,183.5z"/>
<path class="st6" d="M279.71,60.99l-0.19,0.07h0.01l0.25-0.08c0.16-0.05,0.3-0.1,0.45-0.17V60.8
	C280.06,60.87,279.89,60.93,279.71,60.99z M278.88,61.26l0.17-0.05l-0.19,0.05H278.88z M275.2,61.6v0.02
	c0.12,0.01,0.26,0.01,0.39,0.01h0.06l-0.09-0.01C275.43,61.62,275.31,61.61,275.2,61.6z"/>
<path class="st0" d="M246.26,157.48c-19.93,0.21-35.95,16.23-35.74,35.74c0.21,19.74,16,35.74,35.74,35.74
	c19.74,0,35.74-16,35.74-35.74C282,173.49,266,157.28,246.26,157.48"/>
<path class="st7" d="M238.52,194.62c-0.36,0-0.66-0.29-0.72-0.83c-0.1-0.89,0.42-2.45,1.36-3.81c0.88-1.27,2.13-2.36,2.58-2.36
	c0.03,0,0.06,0,0.08,0.01c0.36,0.16-0.26,1.62-0.83,3.08c-0.57,1.46-1.09,2.92-1.72,3.55C239.02,194.5,238.76,194.62,238.52,194.62
	 M253.75,179.45c-11.23,0-20.34,9.1-20.34,20.34c0,11.23,9.1,20.34,20.34,20.34c11.23,0,20.34-9.1,20.34-20.34
	C274.09,188.55,264.99,179.45,253.75,179.45"/>
<path class="st8" d="M229.69,166.05c-0.79,0-2.16,0.56-3.73,1.82c-1.83,1.46-3.91,3.86-5.68,6.31c-1.77,2.45-3.23,4.95-3.44,6.26
	c-0.11,0.68,0.37,1.07,1.04,1.07c0.62,0,1.4-0.32,2.07-1.01c1.41-1.46,3.18-4.48,5.11-6.78c1.93-2.29,4.02-3.86,5.16-5.11
	c1.15-1.25,0.48-2.3-0.19-2.51C229.93,166.07,229.82,166.05,229.69,166.05"/>
<path class="st9" d="M241.74,187.62c-0.45,0-1.7,1.09-2.58,2.36c-0.94,1.36-1.46,2.92-1.36,3.81c0.06,0.54,0.36,0.83,0.72,0.83
	c0.23,0,0.49-0.12,0.73-0.36c0.63-0.63,1.15-2.09,1.72-3.55c0.57-1.46,1.2-2.92,0.83-3.08
	C241.79,187.62,241.77,187.62,241.74,187.62"/>
<path class="st5" d="M356.2,183.23c0,12.17-9.91,22.08-22.09,22.08c-12.17,0-22.08-9.91-22.08-22.08c0-12.18,9.91-22.09,22.08-22.09
	C346.29,161.15,356.2,171.05,356.2,183.23z"/>
<path class="st1" d="M907.33,196.96L907.33,196.96l-8.76,0v0h-46.34v-66v-8.76h-55.77v8.76h47.01v66v8.76h55.1v22.17
	c0,12.89-10.48,23.37-23.37,23.37h-78.73v8.76h78.73c17.75,0,32.13-14.39,32.13-32.13v-22.17h0L907.33,196.96L907.33,196.96z"/>
<path class="st1" d="M796.47,211.29c-0.6-7.59-3.82-14.43-8.78-19.62c-2.06-2.17-4.44-4.07-7.07-5.59c2.63-1.52,5.01-3.42,7.07-5.61
	c4.96-5.19,8.17-12.03,8.78-19.6v-6.53c0-2.21-0.23-4.38-0.67-6.46c-0.71-3.48-1.98-6.76-3.73-9.74c-1.21-2.08-2.65-3.98-4.28-5.73
	c-5.86-6.28-14.2-10.2-23.48-10.2h-49.48c-11.84,0-22.19,6.4-27.75,15.95c-5.57-9.55-15.93-15.95-27.75-15.95h-55.36
	c-11.84,0-22.19,6.4-27.75,15.95c-5.57-9.55-15.91-15.95-27.75-15.95H493.1c-17.75,0-32.13,14.39-32.13,32.13v73.57
	c0,17.74,14.39,32.13,32.13,32.13h55.36c11.84,0,22.19-6.4,27.75-15.93c5.57,9.53,15.91,15.93,27.75,15.93h55.36
	c11.82,0,22.19-6.4,27.75-15.93c2.77-4.75,4.38-10.3,4.38-16.2v-19.23l-0.12-0.12c-10.32-10.32-20.64-20.71-30.97-31.03
	c-7.03-7.01-14.1-14.1-21.1-21.16c-0.58-0.56-0.65-0.65-0.65-0.65c-1.77,1.61-4.71,4.34-6.42,6.01c0,0,0.12,0.25,0.44,0.5
	c0.52,0.46,0.9,0.9,1.33,1.33l48.63,48.65h0.08v15.85c-0.06,12.8-10.51,23.23-23.35,23.23h-55.36c-12.89,0-23.37-10.49-23.37-23.37
	v-0.31h-8.76v0.46c-0.08,12.8-10.53,23.23-23.38,23.23H493.1c-12.89,0-23.38-10.49-23.38-23.37v-73.57
	c0-12.89,10.49-23.37,23.38-23.37h55.36c12.89,0,23.38,10.49,23.38,23.37v12.18l0.02,12.22h-44.75v-9.1v-12.22l-9.43-0.02v30.74
	l0,0.02h0v42.91l9.43,0.02v-42.93h37.25h15.32h1.34c0.94,0.95,1.89,1.91,2.83,2.85c12.95,12.93,26.73,26.61,39.85,39.7l2.65,2.65
	c0.02,0,0.15-0.04,0.98-0.71c0.75-0.6,1.44-1.27,2.11-1.94c0.9-0.92,1.75-1.86,2.65-2.75c0.46-0.46,0.58-0.58,0.58-0.58
	c-5.46-5.48-11.41-11.47-16.87-16.95c-6.65-6.71-13.37-13.49-20.08-20.21c-4.82-4.9-9.72-9.72-14.53-14.6
	c-0.27-0.27-0.52-0.52-0.52-0.52h-0.06v-20.89c0.06-12.82,10.53-23.25,23.37-23.25h55.36c12.17,0,22.18,9.35,23.25,21.25v10.71v6
	v1.56l9.43,0.01V149.3c2.31-10.47,11.67-18.34,22.83-18.34h49.48c12.89,0,23.37,10.49,23.37,23.37v6.16
	c-1.08,11.82-11.03,21.12-23.12,21.21h-23.06v8.76h22.91c12.16,0,22.19,9.34,23.27,21.21v16.24c0,12.89-10.49,23.37-23.37,23.37
	h-72.39v8.76h72.39c9.28,0,17.62-3.92,23.48-10.2c1.63-1.75,3.07-3.67,4.3-5.73c2.77-4.75,4.38-10.3,4.38-16.2V211.29z"/>
<polygon class="st1" points="691.93,212.17 691.96,212.14 691.93,212.14 "/>
<path class="st5" d="M375.32,131.29c4.71,0,8.54-3.83,8.54-8.54c0-4.71-3.83-8.54-8.54-8.54c-4.71,0-8.54,3.83-8.54,8.54
	C366.79,127.46,370.62,131.29,375.32,131.29z"/>
<path class="st10" d="M234.5,110.87V84.65L210.43,61.4h-20.52c-1.04-4.4-4.97-7.69-9.68-7.69c-5.5,0-9.97,4.47-9.97,9.97
	c0,5.5,4.47,9.97,9.97,9.97c4.51,0,8.29-3.03,9.51-7.15h18.63l21.02,20.32v18.95l-16.62-16.62h-59.59c-1.19-4.18-5-7.27-9.55-7.27
	c-5.5,0-9.97,4.47-9.97,9.97c0,5.5,4.47,9.97,9.97,9.97c4.67,0,8.56-3.23,9.64-7.57h57.38l33.05,33.05v21.25
	c0.85-0.06,1.7-0.09,2.56-0.1c0.86-0.01,1.71,0.01,2.56,0.05v-23.32L234.5,110.87z"/>
<path class="st10" d="M243.7,237.92v14.99l-20.12,20.12h-18.03l-23.06,23.06h-28.87c-1.03-4.41-4.97-7.72-9.69-7.72
	c-5.5,0-9.97,4.47-9.97,9.97c0,5.5,4.47,9.97,9.97,9.97c4.5,0,8.26-3.01,9.5-7.11h31.18l23.06-23.06h18.03l18-18v39.18l-26.64,26.64
	h-17.58c-1.47-3.68-5.05-6.3-9.25-6.3c-5.5,0-9.97,4.47-9.97,9.97s4.47,9.97,9.97,9.97c5,0,9.12-3.72,9.82-8.52h19.12l29.63-29.63
	v-63.51c-0.85,0.06-1.7,0.08-2.56,0.08C245.4,238.01,244.55,237.99,243.7,237.92z"/>
<path class="st10" d="M165.29,262.03l43.88-43.88c-0.98-1.45-1.88-2.97-2.68-4.54l-43.32,43.31h-37.5
	c-1.16-4.22-4.99-7.35-9.57-7.35c-5.5,0-9.97,4.47-9.97,9.97c0,5.5,4.47,9.97,9.97,9.97c4.63,0,8.5-3.19,9.61-7.47H165.29z"/>
<path class="st10" d="M116.09,139.67c4.6,0,8.44-3.15,9.58-7.39h25.08l14.07,14.06h31.03l17.03,17.03c1.14-1.26,2.36-2.46,3.64-3.58
	l-18.55-18.55h-31.04l-14.06-14.07h-27.18c-1.13-4.27-4.98-7.43-9.6-7.43c-5.5,0-9.97,4.47-9.97,9.97S110.6,139.67,116.09,139.67z"
	/>
<path class="st10" d="M112.19,224.38h43.17l26.35-28.6h19.87c-0.06-0.84-0.09-1.7-0.1-2.56c-0.01-0.85,0.01-1.71,0.05-2.55h-64.06
	l-24.17-24.17c0.94-1.52,1.51-3.29,1.51-5.21c0-5.5-4.47-9.97-9.97-9.97s-9.97,4.47-9.97,9.97s4.47,9.97,9.97,9.97
	c1.73,0,3.33-0.48,4.75-1.26l25.77,25.77h39.42l-21.65,23.49h-40.84c-1.09-4.33-4.98-7.55-9.64-7.55c-5.5,0-9.97,4.47-9.97,9.97
	c0,5.5,4.47,9.97,9.97,9.97C107.2,231.65,111.01,228.56,112.19,224.38z"/>
</svg>
